<svg xmlns="http://www.w3.org/2000/svg" xml:space="preserve" style="fill-rule:evenodd;clip-rule:evenodd;stroke-linejoin:round;stroke-miterlimit:2" viewBox="0 0 107 70"><path d="M107 10c0-2.208-1.792-4-4-4H4c-2.208 0-4 1.792-4 4v62c0 2.208 1.792 4 4 4h99c2.208 0 4-1.792 4-4V10Z" style="fill:#2b2b2b" transform="translate(0 -6)"/><path d="M86.944 88.339V68.76h15.279c2.938 0 5.44.558 7.508 1.674 2.067 1.115 3.646 2.66 4.737 4.632 1.09 1.973 1.635 4.246 1.635 6.817 0 2.572-.554 4.841-1.664 6.808-1.109 1.967-2.713 3.498-4.812 4.595-2.099 1.097-4.636 1.645-7.612 1.645h-6.883v12.556h-8.188V94.949h-4.743v9.769h-6.487v-9.769h-9.586v-6.61h9.586V78.57h6.487v9.769h4.743Zm8.188.031h5.56c1.576 0 2.877-.275 3.905-.823 1.027-.548 1.796-1.311 2.307-2.288.51-.977.765-2.102.765-3.376 0-1.285-.255-2.411-.765-3.375-.511-.964-1.283-1.714-2.317-2.25-1.034-.536-2.345-.804-3.933-.804h-5.522V88.37Z" style="fill:#fff;fill-rule:nonzero" transform="translate(-38.616 -53.124)"/></svg>